<svg width="353" height="80" viewBox="0 0 353 80" fill="none" xmlns="http://www.w3.org/2000/svg">
<rect x="3" y="3" width="347" height="74" rx="25" fill="#F69F8E"/>
<rect x="3" y="3" width="347" height="74" rx="25" stroke="white" stroke-width="6"/>
<path d="M134.862 29.344V49H130.074V40.908H122.626V49H117.838V29.344H122.626V37.044H130.074V29.344H134.862ZM143.106 33.18V37.156H149.518V40.852H143.106V45.164H150.358V49H138.318V29.344H150.358V33.18H143.106ZM165.702 45.528H158.366L157.19 49H152.178L159.29 29.344H164.834L171.946 49H166.878L165.702 45.528ZM164.47 41.832L162.034 34.636L159.626 41.832H164.47ZM181.475 29.344C183.547 29.344 185.358 29.7547 186.907 30.576C188.456 31.3973 189.651 32.5547 190.491 34.048C191.35 35.5227 191.779 37.2307 191.779 39.172C191.779 41.0947 191.35 42.8027 190.491 44.296C189.651 45.7893 188.447 46.9467 186.879 47.768C185.33 48.5893 183.528 49 181.475 49H174.111V29.344H181.475ZM181.167 44.856C182.978 44.856 184.387 44.3613 185.395 43.372C186.403 42.3827 186.907 40.9827 186.907 39.172C186.907 37.3613 186.403 35.952 185.395 34.944C184.387 33.936 182.978 33.432 181.167 33.432H178.899V44.856H181.167ZM205.176 29.344V49H200.388V29.344H205.176ZM226.23 49H221.442L213.434 36.876V49H208.646V29.344H213.434L221.442 41.524V29.344H226.23V49ZM251.734 43.12C251.921 42.6347 252.126 42.1867 252.35 41.776C252.574 41.3467 252.826 40.9453 253.106 40.572H238.098V38.276H253.106C252.845 37.9027 252.602 37.5107 252.378 37.1C252.154 36.6707 251.949 36.2133 251.762 35.728H253.89C255.048 37.0907 256.317 38.1267 257.698 38.836V40.04C256.317 40.712 255.048 41.7387 253.89 43.12H251.734Z" fill="white"/>
</svg>
