<svg width="482" height="563" viewBox="0 0 482 563" fill="none" xmlns="http://www.w3.org/2000/svg">
<path d="M255.24 454.007C255.642 454.005 256.045 454.002 256.459 454C258.295 454.004 259.725 454.091 261.48 454.677C261.676 457.033 261.872 459.39 262.075 461.819C262.908 461.291 263.742 460.763 264.6 460.219C273.836 454.755 283.597 452.638 294.167 455.272C299.008 456.743 303.243 458.712 307.241 461.819C307.679 462.146 308.117 462.474 308.569 462.812C315.366 468.316 319.551 476.439 320.91 485.031C321.486 495.785 319.373 505.949 312.404 514.493C305.339 521.777 296.377 526.004 286.283 526.34C276.595 526.461 269.549 523.748 261.48 518.361C261.48 533.092 261.48 547.823 261.48 563C257.362 563 253.243 563 249 563C249 527.253 249 491.507 249 454.677C251.115 453.97 253.04 453.994 255.24 454.007ZM266.091 476.371C262.328 481.839 260.91 487.727 261.852 494.256C263.327 501.267 267.099 506.374 273.02 510.298C278.719 513.717 285.63 514.043 292.035 512.523C298.063 510.269 303.329 505.809 306.052 499.911C308.406 494.354 308.762 488.418 306.795 482.687C305.212 478.854 303.179 475.922 300.11 473.127C299.788 472.832 299.466 472.536 299.135 472.232C294.906 468.683 289.157 466.672 283.611 466.987C276.531 467.989 270.699 470.812 266.091 476.371Z" fill="#EE4C2C"/>
<path d="M69.539 421.208C70.7277 422.396 70.7277 422.396 70.802 424.177C70.2341 427.497 67.7344 430.21 65.3786 432.489C63.3658 433.247 63.0486 433.104 60.9395 432.185C60.138 431.76 59.3394 431.329 58.5435 430.894C49.6672 426.244 39.4211 423.362 29.4204 426.032C24.4087 427.863 20.516 430.827 17.8305 435.458C16.3873 438.843 16.3221 442.018 17.2362 445.551C20.3777 452.306 26.5985 455.465 33.2836 458.02C35.7521 458.885 38.2331 459.712 40.713 460.543C52.7789 464.618 67.5504 469.792 74.0338 481.692C77.6297 489.377 77.9418 498.163 75.0484 506.191C71.2621 514.733 65.5481 520.201 56.9787 523.887C43.2072 528.985 27.4671 527.523 14.1437 521.674C8.94611 519.258 4.43393 516.267 0 512.643C0.257601 509.371 0.99823 507.544 3.0089 504.962C3.44484 504.393 3.88078 503.824 4.32994 503.238C4.66628 502.815 5.00262 502.392 5.34915 501.956C8.6569 502.211 10.7633 503.144 13.41 505.036C22.5923 511.226 33.4684 514.892 44.5879 512.826C50.7654 511.52 56.5153 509.409 60.5146 504.282C62.8042 500.576 63.5345 496.697 62.7852 492.407C61.3701 486.916 57.4249 483.232 52.7324 480.324C48.711 478.048 44.5402 476.57 40.1724 475.12C37.9288 474.373 35.6958 473.596 33.4624 472.819C33.0285 472.668 32.5947 472.518 32.1477 472.363C21.3038 468.576 10.5425 463.909 4.8291 453.307C1.52156 446.12 1.70501 438.73 4.16045 431.302C7.78783 423.502 13.2163 418.275 21.1853 414.965C37.0935 409.174 55.3412 412.188 69.539 421.208Z" fill="#EE4C2C"/>
<path d="M88.9602 412C89.4801 412.003 90 412.006 90.5356 412.009C91.0969 412.011 91.6582 412.013 92.2365 412.015C92.8269 412.02 93.4173 412.025 94.0256 412.03C94.6183 412.033 95.211 412.036 95.8217 412.038C97.2912 412.046 98.7606 412.055 100.23 412.068C101.135 413.878 100.931 415.771 100.947 417.759C100.952 418.223 100.958 418.687 100.964 419.166C100.983 420.704 100.998 422.242 101.013 423.78C101.025 424.844 101.037 425.909 101.05 426.974C101.083 429.78 101.112 432.586 101.141 435.392C101.171 438.253 101.204 441.115 101.237 443.977C101.301 449.595 101.361 455.212 101.419 460.83C101.969 460.543 102.52 460.256 103.087 459.96C103.827 459.58 104.568 459.2 105.308 458.821C105.669 458.632 106.029 458.443 106.401 458.248C114.535 454.105 123.766 453.872 132.379 456.667C141.6 460.267 148.704 466.534 152.715 475.662C154.314 479.905 154.993 483.746 154.995 488.293C154.997 488.91 154.997 488.91 154.999 489.54C155.001 490.888 154.999 492.237 154.997 493.585C154.998 494.525 154.998 495.465 154.999 496.405C155 498.369 154.999 500.333 154.996 502.297C154.993 504.819 154.995 507.342 154.998 509.864C155 511.802 155 513.74 154.998 515.678C154.998 516.608 154.998 517.539 155 518.47C155.001 519.765 154.999 521.061 154.995 522.356C154.995 523.094 154.994 523.832 154.994 524.592C154.919 526.243 154.919 526.243 154.324 526.837C153.446 526.896 152.566 526.915 151.686 526.916C150.889 526.918 150.889 526.918 150.075 526.919C149.515 526.916 148.956 526.914 148.38 526.912C147.82 526.914 147.261 526.916 146.685 526.919C146.153 526.918 145.621 526.917 145.073 526.916C144.582 526.916 144.091 526.915 143.585 526.914C142.435 526.837 142.435 526.837 141.841 526.243C141.774 525.092 141.748 523.938 141.738 522.785C141.73 522.045 141.722 521.304 141.713 520.541C141.71 520.142 141.707 519.743 141.704 519.332C141.694 518.081 141.681 516.83 141.666 515.579C141.624 512.021 141.588 508.463 141.557 504.905C141.538 502.73 141.514 500.555 141.486 498.379C141.477 497.555 141.469 496.731 141.464 495.906C141.412 487.737 141.042 480.797 135.409 474.484C131.521 470.784 126.762 468.841 121.414 468.505C115.035 468.732 109.752 471.235 105.394 475.845C101.226 481.31 101.075 487.043 101.099 493.666C101.093 494.588 101.086 495.51 101.077 496.432C101.058 498.84 101.052 501.249 101.049 503.657C101.044 507.528 101.023 511.399 100.995 515.269C100.987 516.619 100.988 517.969 100.989 519.319C100.985 520.142 100.981 520.964 100.976 521.786C100.976 522.505 100.975 523.224 100.974 523.965C100.825 525.648 100.825 525.648 99.6356 526.837C98.4827 526.991 98.4827 526.991 97.0907 526.995C96.5903 526.997 96.0899 526.998 95.5744 527C95.051 526.995 94.5277 526.991 93.9884 526.986C93.4651 526.991 92.9417 526.995 92.4025 527C91.9021 526.998 91.4018 526.997 90.8862 526.995C90.4268 526.994 89.9675 526.993 89.4942 526.991C88.3413 526.837 88.3413 526.837 87.1524 525.648C87.0363 524.15 86.9949 522.718 87.0054 521.22C87.004 520.758 87.0026 520.296 87.0011 519.82C86.9977 518.263 87.0029 516.707 87.008 515.151C87.0074 514.038 87.0062 512.926 87.0046 511.814C87.0017 508.786 87.0062 505.759 87.0123 502.732C87.0175 499.57 87.0164 496.409 87.0162 493.247C87.0168 487.937 87.0219 482.628 87.03 477.318C87.0394 471.17 87.0425 465.023 87.0421 458.875C87.0417 452.972 87.0448 447.068 87.0497 441.165C87.0518 438.648 87.0529 436.131 87.0532 433.613C87.0538 430.652 87.0574 427.691 87.0634 424.73C87.0651 423.639 87.0659 422.549 87.0655 421.459C87.0652 419.978 87.0686 418.497 87.0729 417.015C87.072 416.578 87.0711 416.141 87.0701 415.691C87.0876 412.104 87.0876 412.104 88.9602 412Z" fill="#EE4C2C"/>
<path d="M386.726 459.997C395.928 466.964 400.385 476.003 401.941 487.176C402.079 489.698 402.107 490.725 400.492 492.793C398.178 494.62 396.36 494.608 393.521 494.545C393.007 494.546 392.493 494.546 391.963 494.547C390.269 494.545 388.576 494.522 386.882 494.499C385.706 494.493 384.529 494.489 383.353 494.486C380.26 494.475 377.168 494.446 374.075 494.413C370.918 494.383 367.761 494.369 364.603 494.355C358.411 494.323 352.219 494.273 346.027 494.211C346.479 495.333 346.936 496.453 347.395 497.573C347.649 498.197 347.903 498.821 348.164 499.464C351.042 505.603 356.105 508.247 362.187 510.728C368.933 512.699 378.115 512.067 384.332 508.958C388.476 506.644 388.476 506.644 392.112 503.649C393.52 503.64 393.52 503.64 395.105 504.239C396.136 505.475 396.916 506.563 397.723 507.926C397.943 508.264 398.163 508.602 398.39 508.951C399.366 510.545 399.902 511.645 399.834 513.523C398.241 517.46 393.571 519.394 389.912 521.118C385.13 523.084 379.963 524.662 374.756 524.885C373.858 524.931 373.858 524.931 372.941 524.977C362.148 525.265 352.193 522.844 343.895 515.779C336.399 508.526 332.31 500.07 332 489.639C332.077 479.916 335.413 471.38 342.226 464.294C354.708 452.339 372.108 450.651 386.726 459.997ZM350.362 474.126C348.421 476.548 347.663 478.165 346.626 481.233C360.056 481.233 373.487 481.233 387.324 481.233C385.172 474.868 381.376 471.303 375.354 468.255C366.61 464.73 356.604 467.291 350.362 474.126Z" fill="#EE4D2C"/>
<path d="M469.164 460.947C475.653 466.323 480.505 474.553 481.754 482.935C481.853 484.545 481.916 486.126 481.938 487.735C481.964 488.369 481.964 488.369 481.99 489.016C482.027 492.076 482.027 492.076 480.877 493.391C478.759 494.496 476.723 494.419 474.391 494.415C473.634 494.424 473.634 494.424 472.862 494.433C471.196 494.451 469.53 494.456 467.865 494.462C466.709 494.472 465.553 494.482 464.397 494.494C461.356 494.522 458.316 494.54 455.275 494.555C452.172 494.573 449.068 494.6 445.965 494.627C439.877 494.678 433.789 494.717 427.701 494.75C428.064 495.699 428.431 496.647 428.8 497.594C429.003 498.121 429.207 498.649 429.418 499.193C431.379 503.729 435.631 507.442 440.039 509.519C440.431 509.706 440.822 509.893 441.226 510.086C447.86 512.633 456.92 512.158 463.518 509.809C466.005 508.581 468.23 507.05 470.409 505.331C472.62 503.62 472.62 503.62 474.201 503.579C477.154 505.266 478.9 509.115 480.396 512.066C480.579 513.654 480.579 513.654 479.654 515.08C473.22 521.977 462.413 524.467 453.403 524.989C442.524 525.199 432.57 522.484 424.433 515.072C418.448 509.214 414.343 501.008 414.011 492.544C413.999 491.557 413.997 490.569 414.004 489.581C414.007 489.061 414.01 488.54 414.014 488.004C414.193 478.277 417.89 469.761 424.763 462.85C438.047 451.711 454.999 451.099 469.164 460.947ZM432.768 472.782C430.678 475.024 428.288 477.948 428.288 481.163C441.473 481.163 454.657 481.163 468.241 481.163C464.601 473.844 461.424 470.433 454.103 467.429C446.247 465.412 438.744 467.129 432.768 472.782Z" fill="#EE4D2C"/>
<path d="M212.885 455.973C213.384 456.132 213.884 456.291 214.398 456.455C222.053 459.201 228.753 465.353 232.8 472.474C237.104 481.656 238.44 491.625 235.202 501.405C233.698 505.313 231.821 508.746 229.346 512.099C229.102 512.452 228.858 512.806 228.606 513.17C222.724 520.986 213.287 524.467 204.066 525.832C194.025 526.842 184.695 523.226 177.023 516.876C171.52 512.273 167.522 505.413 165.853 498.366C165.746 497.93 165.64 497.495 165.53 497.046C163.913 486.851 166.017 477.326 171.583 468.714C177.19 461.054 185.243 456.405 194.352 454.482C200.721 453.557 206.755 453.915 212.885 455.973ZM182.902 475.677C178.686 481.496 177.589 487.019 178.199 494.186C179.556 500.596 183.315 505.587 188.485 509.407C194.001 512.781 199.967 513.521 206.257 512.414C212.104 510.879 217.587 506.958 220.805 501.739C224.056 495.521 224.893 489.614 222.934 482.772C220.674 476.675 216.919 471.996 211.121 469.109C210.751 468.918 210.382 468.728 210.001 468.532C200.215 464.385 189.685 467.942 182.902 475.677Z" fill="#EE4C2C"/>
<path d="M283.125 13.548C301.377 27.7104 315.194 48.7683 318.732 71.9414C319.02 74.3278 319.273 76.7145 319.508 79.1066C319.593 79.9284 319.679 80.7503 319.768 81.597C319.976 83.597 320.176 85.5978 320.375 87.5987C321.331 87.5899 322.286 87.581 323.271 87.5718C332.276 87.4908 341.281 87.4308 350.286 87.3915C354.916 87.3706 359.545 87.3423 364.175 87.297C368.642 87.2535 373.11 87.2296 377.577 87.2192C379.282 87.2118 380.987 87.1974 382.692 87.1758C385.079 87.1468 387.465 87.1428 389.852 87.1446C390.558 87.1303 391.264 87.1159 391.991 87.1011C395.163 87.1278 397.009 87.3214 399.568 89.2611C401.88 92.252 401.819 93.7308 401.686 97.4819C401.649 98.7348 401.613 99.9878 401.575 101.279C401.509 102.719 401.443 104.159 401.375 105.599C401.312 107.2 401.25 108.801 401.189 110.403C400.96 116.093 400.678 121.781 400.397 127.468C400.291 129.648 400.186 131.828 400.081 134.007C399.797 139.889 399.509 145.771 399.219 151.653C399.038 155.334 398.858 159.015 398.679 162.696C398.051 175.555 397.42 188.413 396.785 201.272C396.195 213.233 395.612 225.195 395.033 237.157C394.535 247.453 394.031 257.749 393.522 268.045C393.219 274.183 392.919 280.321 392.623 286.459C392.346 292.23 392.061 298 391.771 303.77C391.667 305.881 391.564 307.991 391.464 310.102C389.819 344.793 389.819 344.793 379.187 354.974C371.916 361.508 363.234 363.197 353.762 363.12C352.741 363.128 351.72 363.135 350.668 363.143C347.272 363.164 343.877 363.156 340.481 363.148C338.036 363.157 335.591 363.167 333.146 363.179C327.209 363.203 321.272 363.208 315.335 363.203C310.506 363.2 305.677 363.203 300.848 363.212C300.159 363.213 299.47 363.214 298.76 363.216C297.36 363.218 295.96 363.22 294.56 363.223C281.449 363.245 268.339 363.24 255.229 363.228C243.255 363.218 231.282 363.24 219.308 363.278C206.99 363.317 194.673 363.333 182.355 363.326C175.449 363.322 168.543 363.327 161.637 363.355C155.141 363.382 148.645 363.377 142.149 363.351C139.771 363.346 137.393 363.351 135.014 363.368C110.068 363.529 110.068 363.529 100.179 354.62C92.2186 346.526 90.3606 336.89 89.8748 325.941C89.8331 325.07 89.7915 324.198 89.7485 323.301C89.6098 320.38 89.4765 317.46 89.3432 314.54C89.2449 312.445 89.1462 310.35 89.0472 308.255C88.7791 302.558 88.516 296.86 88.254 291.162C88.0343 286.39 87.8123 281.618 87.5903 276.846C87.0655 265.562 86.545 254.277 86.0268 242.992C85.495 231.411 84.9558 219.83 84.413 208.248C83.9456 198.271 83.4831 188.294 83.0244 178.316C82.7511 172.373 82.476 166.431 82.1961 160.488C80.1963 117.948 80.1963 117.948 80.0527 101.166C80.0357 100.093 80.0186 99.0212 80.0011 97.9165C80.0027 96.9681 80.0044 96.0198 80.0061 95.0426C80.0041 94.245 80.0021 93.4473 80 92.6255C80.4786 90.0367 81.2738 89.1512 83.3747 87.5987C85.9569 87.3183 88.2949 87.2194 90.8755 87.2582C92.0173 87.2575 92.0173 87.2575 93.1822 87.2568C95.6984 87.2589 98.214 87.2823 100.73 87.3058C102.475 87.3114 104.219 87.3156 105.964 87.3186C110.555 87.3301 115.147 87.3596 119.739 87.3928C124.424 87.4234 129.109 87.4371 133.795 87.4523C142.988 87.4844 152.181 87.5356 161.375 87.5987C161.363 86.7001 161.363 86.7001 161.35 85.7833C161.344 84.9873 161.338 84.1913 161.331 83.3712C161.319 82.1941 161.319 82.1941 161.306 80.9932C161.415 77.1699 162.192 73.5621 163.062 69.8487C163.242 69.0694 163.421 68.2901 163.606 67.4872C167.188 52.5448 173.524 39.3888 183.375 27.5987C184.156 26.5991 184.156 26.5991 184.953 25.5792C208.896 -3.88506 252.874 -7.89381 283.125 13.548ZM202.09 39.4425C190.505 54.0084 185.223 69.1127 183.375 87.5987C220.995 87.5987 258.615 87.5987 297.375 87.5987C295.616 64.738 288.792 49.0561 272.086 33.462C250.954 15.7495 220.42 19.7231 202.09 39.4425ZM196.054 150.567C188.494 159.711 184.649 170.392 185.59 182.325C187.454 194.93 193.946 204.856 203.999 212.627C211.378 217.655 218.768 221.128 227.125 224.224C228.967 224.929 228.967 224.929 230.847 225.649C235.99 227.61 241.148 229.527 246.328 231.388C259.414 236.094 272.589 241.815 279.812 254.411C283.076 261.857 283.138 269.644 280.437 277.251C276.398 286.176 269.877 290.965 260.906 294.599C243.75 300.546 225.305 298.45 209.071 290.809C202.714 287.67 196.882 284.147 191.293 279.751C190.66 279.371 190.027 278.991 189.375 278.599C185.796 279.792 185.193 280.843 183.125 283.911C182.583 284.691 182.042 285.471 181.484 286.275C180.207 288.483 180.207 288.483 180.461 290.681C185.11 300.437 201.701 306.029 211.101 309.501C231.755 316.427 253.398 317.131 273.562 308.095C285.397 301.8 293.621 291.753 297.699 279.017C300.82 267.848 299.947 257.262 295.375 246.599C293.385 243.211 291.087 240.432 288.375 237.599C287.329 236.493 287.329 236.493 286.261 235.364C274.404 223.806 259.363 218.144 244.077 212.583C212.39 201.045 212.39 201.045 205.375 188.599C202.532 181.154 202.513 174.227 205.289 166.829C209.496 158.187 216.648 154.035 225.375 150.599C243.468 145.595 262.268 151.373 278.144 159.892C281.263 161.652 281.263 161.652 284.375 162.599C285.575 160.836 286.759 159.063 287.937 157.286C288.929 155.807 288.929 155.807 289.941 154.298C290.414 153.407 290.887 152.516 291.375 151.599C289.932 147.271 286.715 146.228 282.875 144.224C282.12 143.827 281.366 143.43 280.588 143.021C254.178 129.634 217.694 127.222 196.054 150.567Z" fill="#EE4C2C"/>
</svg>
