<svg width="353" height="80" viewBox="0 0 353 80" fill="none" xmlns="http://www.w3.org/2000/svg">
<rect x="3" y="3" width="347" height="74" rx="25" fill="#F69F8E"/>
<rect x="3" y="3" width="347" height="74" rx="25" stroke="white" stroke-width="6"/>
<path d="M106.028 49L101.94 41.58H100.792V49H96.0036V29.344H104.04C105.589 29.344 106.905 29.6147 107.988 30.156C109.089 30.6973 109.91 31.444 110.452 32.396C110.993 33.3293 111.264 34.3747 111.264 35.532C111.264 36.8387 110.89 38.0053 110.144 39.032C109.416 40.0587 108.333 40.7867 106.896 41.216L111.432 49H106.028ZM100.792 38.192H103.76C104.637 38.192 105.29 37.9773 105.72 37.548C106.168 37.1187 106.392 36.512 106.392 35.728C106.392 34.9813 106.168 34.3933 105.72 33.964C105.29 33.5347 104.637 33.32 103.76 33.32H100.792V38.192ZM119.057 33.18V37.156H125.469V40.852H119.057V45.164H126.309V49H114.269V29.344H126.309V33.18H119.057ZM141.654 45.528H134.318L133.142 49H128.13L135.242 29.344H140.786L147.898 49H142.83L141.654 45.528ZM140.422 41.832L137.986 34.636L135.578 41.832H140.422ZM157.426 29.344C159.498 29.344 161.309 29.7547 162.858 30.576C164.408 31.3973 165.602 32.5547 166.442 34.048C167.301 35.5227 167.73 37.2307 167.73 39.172C167.73 41.0947 167.301 42.8027 166.442 44.296C165.602 45.7893 164.398 46.9467 162.83 47.768C161.281 48.5893 159.48 49 157.426 49H150.062V29.344H157.426ZM157.118 44.856C158.929 44.856 160.338 44.3613 161.346 43.372C162.354 42.3827 162.858 40.9827 162.858 39.172C162.858 37.3613 162.354 35.952 161.346 34.944C160.338 33.936 158.929 33.432 157.118 33.432H154.85V44.856H157.118ZM198.6 29.344V49H193.812V37.212L189.416 49H185.552L181.128 37.184V49H176.34V29.344H181.996L187.512 42.952L192.972 29.344H198.6ZM211.339 49.196C209.491 49.196 207.792 48.7667 206.243 47.908C204.712 47.0493 203.489 45.8547 202.575 44.324C201.679 42.7747 201.231 41.0387 201.231 39.116C201.231 37.1933 201.679 35.4667 202.575 33.936C203.489 32.4053 204.712 31.2107 206.243 30.352C207.792 29.4933 209.491 29.064 211.339 29.064C213.187 29.064 214.876 29.4933 216.407 30.352C217.956 31.2107 219.169 32.4053 220.047 33.936C220.943 35.4667 221.391 37.1933 221.391 39.116C221.391 41.0387 220.943 42.7747 220.047 44.324C219.151 45.8547 217.937 47.0493 216.407 47.908C214.876 48.7667 213.187 49.196 211.339 49.196ZM211.339 44.828C212.907 44.828 214.157 44.3053 215.091 43.26C216.043 42.2147 216.519 40.8333 216.519 39.116C216.519 37.38 216.043 35.9987 215.091 34.972C214.157 33.9267 212.907 33.404 211.339 33.404C209.752 33.404 208.483 33.9173 207.531 34.944C206.597 35.9707 206.131 37.3613 206.131 39.116C206.131 40.852 206.597 42.2427 207.531 43.288C208.483 44.3147 209.752 44.828 211.339 44.828ZM234.078 49L229.99 41.58H228.842V49H224.054V29.344H232.09C233.64 29.344 234.956 29.6147 236.038 30.156C237.14 30.6973 237.961 31.444 238.502 32.396C239.044 33.3293 239.314 34.3747 239.314 35.532C239.314 36.8387 238.941 38.0053 238.194 39.032C237.466 40.0587 236.384 40.7867 234.946 41.216L239.482 49H234.078ZM228.842 38.192H231.81C232.688 38.192 233.341 37.9773 233.77 37.548C234.218 37.1187 234.442 36.512 234.442 35.728C234.442 34.9813 234.218 34.3933 233.77 33.964C233.341 33.5347 232.688 33.32 231.81 33.32H228.842V38.192ZM247.108 33.18V37.156H253.52V40.852H247.108V45.164H254.36V49H242.32V29.344H254.36V33.18H247.108Z" fill="white"/>
</svg>
