<?xml version="1.0" encoding="UTF-8"?>
<svg version="1.1" xmlns="http://www.w3.org/2000/svg" width="1200" height="384">
<path d="M0 0 C18.25254594 14.1624175 32.06969938 35.22035489 35.60766602 58.39343262 C35.89478689 60.77980474 36.1480189 63.16652727 36.3828125 65.55859375 C36.46861572 66.38045166 36.55441895 67.20230957 36.64282227 68.04907227 C36.85082169 70.04906676 37.05121778 72.04984963 37.25 74.05078125 C38.20577942 74.0418988 39.16155884 74.03301636 40.14630127 74.02386475 C49.15126859 73.94279681 58.15616192 73.88282455 67.16141129 73.84353256 C71.79119316 73.82265299 76.42068057 73.79432876 81.05029297 73.74902344 C85.51771694 73.70557862 89.98485759 73.68164693 94.4524765 73.67127228 C96.15736095 73.66387842 97.8622298 73.64943993 99.56699371 73.62786102 C101.95418364 73.59884431 104.3402013 73.59482439 106.72753906 73.59667969 C107.43316483 73.58229858 108.13879059 73.56791748 108.86579895 73.55310059 C112.03820171 73.57979826 113.88404565 73.77341608 116.44331932 75.71314812 C118.75486316 78.70401504 118.69466702 80.18286409 118.56112671 83.93392944 C118.52454327 85.18688183 118.48795982 86.43983421 118.45026779 87.73075485 C118.38471509 89.17081893 118.31789088 90.61082551 118.25 92.05078125 C118.18733719 93.65212652 118.12549126 95.2535039 118.06435013 96.85490799 C117.83498527 102.54516399 117.55350651 108.23253814 117.27197266 113.92041016 C117.16657294 116.10000824 117.06145275 118.27961985 116.95658875 120.45924377 C116.67261449 126.34143036 116.38423731 132.22339289 116.09464312 138.10530519 C115.91362226 141.78629576 115.73357704 145.46733274 115.55387497 149.14838791 C114.92613059 162.00697638 114.29482635 174.86538436 113.66015625 187.72363281 C113.06984319 199.68511003 112.48733408 211.6469412 111.90844882 223.60897696 C111.40983647 233.90515183 110.90578726 244.20105129 110.3975395 254.496755 C110.09462706 260.6347645 109.79387805 266.77286079 109.49861526 272.91124344 C109.22085513 278.68184037 108.93630286 284.45206363 108.64663124 290.22207451 C108.54181231 292.33260056 108.43936645 294.4432461 108.33954048 296.55401421 C106.69431695 331.24478339 106.69431695 331.24478339 96.0625 341.42578125 C88.79124711 347.96017677 80.1095967 349.64871507 70.63723755 349.57217407 C69.616272 349.57982517 68.59530645 349.58747626 67.54340255 349.59535921 C64.1473734 349.61587593 60.75202963 349.60806286 57.35595703 349.60009766 C54.91092304 349.60879858 52.46589451 349.61916711 50.02087402 349.631073 C44.08385331 349.65503102 38.14700054 349.66016459 32.20994987 349.65547247 C27.3809422 349.65189679 22.55198926 349.6554253 17.72298813 349.66392136 C17.03396739 349.66511173 16.34494666 349.66630211 15.6350465 349.66752856 C14.23500061 349.66995223 12.83495473 349.6723805 11.43490885 349.67481332 C-1.67532005 349.69653314 -14.7854459 349.6922541 -27.89568056 349.68004362 C-39.86954152 349.66970751 -51.84307695 349.69221545 -63.81687354 349.73024006 C-76.13441399 349.76905411 -88.45180066 349.78549892 -100.76940262 349.77799356 C-107.6756812 349.77417816 -114.58168278 349.77905961 -121.48791122 349.80742264 C-127.9838619 349.83383249 -134.47932508 349.8286532 -140.97528076 349.80260086 C-143.35361071 349.79787905 -145.73198673 349.80330391 -148.11026382 349.81984711 C-173.0567065 349.9808062 -173.0567065 349.9808062 -182.94618034 341.07248878 C-190.90614173 332.97843066 -192.76414494 323.34166711 -193.24989319 312.39303589 C-193.29158314 311.52168318 -193.33327309 310.65033047 -193.37622637 309.75257313 C-193.51497551 306.83244168 -193.64823348 303.91208591 -193.78149414 300.99169922 C-193.87985103 298.89685119 -193.9785274 296.80201815 -194.07749939 294.7071991 C-194.34559962 289.00975131 -194.60874765 283.31208488 -194.87068486 277.6143508 C-195.09045197 272.84226047 -195.31246244 268.07027551 -195.53441805 263.29828656 C-196.05918122 252.01380096 -196.57977388 240.72912805 -197.09790039 229.44433594 C-197.62973388 217.86276774 -198.16891175 206.28155817 -198.71175677 194.70050132 C-199.17913655 184.72319798 -199.64160723 174.7456748 -200.10034078 164.7679702 C-200.37362359 158.82523876 -200.64869721 152.88260509 -200.92860603 146.94018173 C-202.92842502 104.40038214 -202.92842502 104.40038214 -203.07202148 87.61767578 C-203.08905908 86.54547224 -203.10609667 85.4732687 -203.12365055 84.36857414 C-203.12199611 83.42018229 -203.12034166 82.47179043 -203.11863708 81.49465942 C-203.12064841 80.69700731 -203.12265974 79.8993552 -203.12473202 79.07753181 C-202.64608807 76.48877014 -201.85090071 75.60322144 -199.75 74.05078125 C-197.16782229 73.77035652 -194.82981085 73.67147089 -192.24926758 73.71020508 C-191.1074427 73.70954796 -191.1074427 73.70954796 -189.94255066 73.70887756 C-187.42628334 73.71096772 -184.91068218 73.7343089 -182.39453125 73.7578125 C-180.65004338 73.76340766 -178.90555079 73.76767814 -177.16105652 73.77067566 C-172.56929513 73.78213076 -167.97781836 73.8116036 -163.38616943 73.8447876 C-158.70084483 73.87547418 -154.01547425 73.88917797 -149.33007812 73.90429688 C-140.13659369 73.93647271 -130.94332051 73.98767707 -121.75 74.05078125 C-121.76216805 73.15211334 -121.76216805 73.15211334 -121.77458191 72.23529053 C-121.78089127 71.43931458 -121.78720062 70.64333862 -121.79370117 69.82324219 C-121.80586922 68.64613678 -121.80586922 68.64613678 -121.81828308 67.44525146 C-121.70925394 63.62194664 -120.93271536 60.01410865 -120.0625 56.30078125 C-119.88315918 55.5214624 -119.70381836 54.74214355 -119.51904297 53.93920898 C-115.93656548 38.99687037 -109.60049648 25.84086664 -99.75 14.05078125 C-98.96882813 13.05111328 -98.96882813 13.05111328 -98.171875 12.03125 C-74.2285222 -17.43302152 -30.25052077 -21.44177538 0 0 Z M-81.03515625 25.89453125 C-92.61928874 40.46045639 -97.90139122 55.56469342 -99.75 74.05078125 C-62.13 74.05078125 -24.51 74.05078125 14.25 74.05078125 C12.49147744 51.18998792 5.66685491 35.50815265 -11.0390625 19.9140625 C-32.17117835 2.20150722 -62.70504069 6.17509152 -81.03515625 25.89453125 Z M-87.0703125 137.01953125 C-94.63115035 146.16287005 -98.47549406 156.8436021 -97.53515625 168.77734375 C-95.67110447 181.38188434 -89.17876138 191.30795539 -79.1262207 199.07910156 C-71.74624023 204.10664551 -64.35649784 207.58001596 -56 210.67578125 C-54.15728516 211.38105957 -54.15728516 211.38105957 -52.27734375 212.10058594 C-47.13460272 214.06237601 -41.97701581 215.97912311 -36.796875 217.83984375 C-23.71102243 222.54589282 -10.53617266 228.26684138 -3.3125 240.86328125 C-0.04860105 248.30905072 0.01301952 256.09585796 -2.6875 263.703125 C-6.72656832 272.62768405 -13.24732497 277.4167863 -22.21875 281.05078125 C-39.37437003 286.99806286 -57.81924623 284.90210684 -74.0534668 277.26147461 C-80.41046406 274.12155999 -86.24289216 270.59940136 -91.83203125 266.203125 C-92.46496094 265.82285156 -93.09789063 265.44257813 -93.75 265.05078125 C-97.32885399 266.24373258 -97.93134909 267.29545187 -100 270.36328125 C-100.54140625 271.14316406 -101.0828125 271.92304688 -101.640625 272.7265625 C-102.91730433 274.93534005 -102.91730433 274.93534005 -102.6640625 277.1328125 C-98.01469515 286.8885363 -81.42390679 292.48098017 -72.0234375 295.953125 C-51.3693623 302.87889485 -29.72649244 303.58313225 -9.5625 294.546875 C2.27194951 288.25160533 10.49648756 278.20492362 14.57421875 265.46875 C17.69557368 254.30043379 16.82180715 243.71380921 12.25 233.05078125 C10.26064531 229.66307379 7.96264483 226.88410467 5.25 224.05078125 C4.20392578 222.94476563 4.20392578 222.94476563 3.13671875 221.81640625 C-8.72066431 210.25794882 -23.76123648 204.5962054 -39.04785156 199.03466797 C-70.73484116 187.49703081 -70.73484116 187.49703081 -77.75 175.05078125 C-80.59248783 167.60617027 -80.61158516 160.67873299 -77.8359375 153.28125 C-73.62843052 144.63921227 -66.47686436 140.48683547 -57.75 137.05078125 C-39.65681558 132.04693261 -20.85710698 137.82527215 -4.98046875 146.34375 C-1.86171962 148.10444771 -1.86171962 148.10444771 1.25 149.05078125 C2.4499038 147.28832903 3.63459517 145.51551144 4.8125 143.73828125 C5.80443359 142.25908203 5.80443359 142.25908203 6.81640625 140.75 C7.28949219 139.85925781 7.76257813 138.96851563 8.25 138.05078125 C6.80748941 133.72324947 3.59001498 132.68051041 -0.25 130.67578125 C-1.00450439 130.27875 -1.75900879 129.88171875 -2.53637695 129.47265625 C-28.94631411 116.08586131 -65.43055954 113.67373967 -87.0703125 137.01953125 Z " fill="#EE4C2C" transform="translate(202.75,12.94921875)"/>
<path d="M0 0 C0.67675781 -0.00386719 1.35351562 -0.00773438 2.05078125 -0.01171875 C5.14073767 -0.00562416 7.54679311 0.1405977 10.5 1.125 C10.83 5.085 11.16 9.045 11.5 13.125 C12.9025 12.238125 14.305 11.35125 15.75 10.4375 C31.28988054 1.25681638 47.71463241 -2.30036859 65.5 2.125 C73.64605941 4.59658848 80.7725672 7.90501048 87.5 13.125 C88.23734375 13.67542969 88.9746875 14.22585937 89.734375 14.79296875 C101.17159818 24.04134405 108.21398701 37.68925132 110.5 52.125 C111.46960359 70.19318993 107.91396457 87.27067711 96.1875 101.625 C84.30013347 113.86358418 69.21912716 120.96654065 52.23388672 121.52978516 C35.93344753 121.73418894 24.07684545 117.1762303 10.5 108.125 C10.5 132.875 10.5 157.625 10.5 183.125 C3.57 183.125 -3.36 183.125 -10.5 183.125 C-10.5 123.065 -10.5 63.005 -10.5 1.125 C-6.94086771 -0.06137743 -3.701855 -0.02115346 0 0 Z M18.2578125 37.57421875 C11.92677255 46.76126117 9.54017467 56.65431591 11.125 67.625 C13.6075149 79.4044499 19.95515197 87.98486997 29.91796875 94.578125 C39.50655159 100.322571 51.13656663 100.86897106 61.9140625 98.31640625 C72.05571681 94.52966452 80.91759275 87.03492138 85.5 77.125 C89.45977869 67.78893643 90.05950896 57.81516242 86.75 48.1875 C84.08601877 41.74720853 80.6654078 36.82082527 75.5 32.125 C74.95859375 31.62871094 74.4171875 31.13242188 73.859375 30.62109375 C66.74448039 24.65713798 57.07088582 21.27968929 47.73828125 21.80859375 C35.82574456 23.49256491 26.01227089 28.23433466 18.2578125 37.57421875 Z " fill="#EE4C2C" transform="translate(817.5,200.875)"/>
<path d="M0 0 C2 2 2 2 2.125 5 C1.16941357 10.59195021 -3.0362331 15.16124987 -7 19 C-10.38648251 20.27678551 -10.92014271 20.03480267 -14.46875 18.48828125 C-15.81734088 17.77206244 -17.16086954 17.04625496 -18.5 16.3125 C-33.43456855 8.48095796 -50.67366165 3.62739384 -67.5 8.125 C-75.93221543 11.20820802 -82.4816771 16.19978716 -87 24 C-89.42826615 29.70114662 -89.53799018 35.04825103 -88 41 C-82.7142616 52.37622591 -72.24782595 57.69738226 -61 62 C-56.84679947 63.45674126 -52.67247311 64.84959556 -48.5 66.25 C-28.19910301 73.11348417 -3.34580425 81.8270847 7.5625 101.87109375 C13.61261911 114.81353606 14.13772928 129.61195154 9.26953125 143.1328125 C2.8990409 157.52031993 -6.71468994 166.72912995 -21.1328125 172.9375 C-44.30358013 181.5239425 -70.78639033 179.06134794 -93.203125 169.2109375 C-101.94808918 165.14087641 -109.53987814 160.10373606 -117 154 C-116.56658468 148.48943384 -115.32046988 145.41203271 -111.9375 141.0625 C-111.20402344 140.10472656 -110.47054688 139.14695312 -109.71484375 138.16015625 C-109.14894531 137.44730469 -108.58304687 136.73445312 -108 136 C-102.43469643 136.4291827 -98.89066416 138.00020336 -94.4375 141.1875 C-78.98831465 151.61279613 -60.68906986 157.78730063 -41.98046875 154.30859375 C-31.58670498 152.10888119 -21.91242713 148.55298722 -15.18359375 139.91796875 C-11.33137542 133.67559516 -10.1026679 127.14277432 -11.36328125 119.91796875 C-13.74423354 110.66950782 -20.38205626 104.46468238 -28.27734375 99.56640625 C-35.04326852 95.73357221 -42.06065287 93.24277136 -49.40963745 90.80090332 C-53.18441043 89.54273232 -56.94155083 88.23399332 -60.69921875 86.92578125 C-61.42917557 86.67214813 -62.15913239 86.41851501 -62.91120911 86.15719604 C-81.15614569 79.77878234 -99.26217171 71.91888744 -108.875 54.0625 C-114.43995696 41.95825017 -114.1313021 29.51069223 -110 17 C-103.89689927 3.86335166 -94.76350671 -4.93972068 -81.35546875 -10.515625 C-54.58991071 -20.2689383 -23.88790386 -15.19307295 0 0 Z " fill="#EE4C2C" transform="translate(503,145)"/>
<path d="M0 0 C0.87454834 0.00523682 1.74909668 0.01047363 2.65014648 0.01586914 C3.59438477 0.0190918 4.53862305 0.02231445 5.51147461 0.02563477 C6.50469727 0.03401367 7.49791992 0.04239258 8.52124023 0.05102539 C9.51833008 0.05553711 10.51541992 0.06004883 11.54272461 0.06469727 C14.01478872 0.07652532 16.48673541 0.0930069 18.95874023 0.11352539 C20.48135413 3.15875319 20.13809194 6.34128125 20.1640625 9.68432617 C20.1739621 10.46490387 20.18386169 11.24548157 20.19406128 12.04971313 C20.22571001 14.63605694 20.25044699 17.22241914 20.27514648 19.80883789 C20.2957131 21.59960413 20.3167095 23.39036547 20.33811951 25.18112183 C20.39337037 29.89931282 20.44276633 34.61754784 20.4909668 39.33581543 C20.54115983 44.14847746 20.59685735 48.96107539 20.65209961 53.77368164 C20.75971804 63.22024149 20.86115482 72.66685695 20.95874023 82.11352539 C21.88452881 81.63069092 22.81031738 81.14785645 23.76416016 80.65039062 C25.00981804 80.01142622 26.2556786 79.37285683 27.50170898 78.73461914 C28.10817261 78.41698608 28.71463623 78.09935303 29.33947754 77.77209473 C43.02323911 70.80556888 58.55271843 70.41271223 73.04077148 75.11352539 C88.55379375 81.16738774 100.50476648 91.70614703 107.25170898 107.05493164 C109.94099189 114.19075451 111.08324787 120.64922998 111.08813477 128.29638672 C111.09076324 129.33404678 111.09076324 129.33404678 111.09344482 130.39266968 C111.0978171 132.66032479 111.09494337 134.92790086 111.09155273 137.19555664 C111.09222672 138.77642329 111.09319753 140.35728983 111.0944519 141.93815613 C111.09592227 145.2406819 111.09379415 148.54318052 111.08911133 151.84570312 C111.083391 156.08732903 111.08671171 160.32889199 111.09268379 164.57051563 C111.09628734 167.82946757 111.09515218 171.08840442 111.092556 174.3473568 C111.09188737 175.91233007 111.09271294 177.47730469 111.09503555 179.04227638 C111.09756122 181.22076714 111.09372383 183.39915377 111.08813477 185.57763672 C111.08733917 186.81862625 111.08654358 188.05961578 111.08572388 189.33821106 C110.95874023 192.11352539 110.95874023 192.11352539 109.95874023 193.11352539 C108.48221359 193.21233336 107.00106788 193.24431785 105.52124023 193.24633789 C104.17932617 193.24827148 104.17932617 193.24827148 102.81030273 193.25024414 C101.86928711 193.24637695 100.92827148 193.24250977 99.95874023 193.23852539 C99.01772461 193.24239258 98.07670898 193.24625977 97.10717773 193.25024414 C96.21256836 193.24895508 95.31795898 193.24766602 94.39624023 193.24633789 C93.56995117 193.24520996 92.74366211 193.24408203 91.89233398 193.24291992 C89.95874023 193.11352539 89.95874023 193.11352539 88.95874023 192.11352539 C88.84557431 190.17797896 88.80189752 188.23834012 88.78515625 186.29956055 C88.77166641 185.05381256 88.75817657 183.80806458 88.74427795 182.52456665 C88.73921801 181.85364613 88.73415806 181.1827256 88.72894478 180.49147415 C88.71253247 178.38797504 88.68928602 176.28465449 88.66404724 174.1812439 C88.59333989 168.19831296 88.53362997 162.21530221 88.48193359 156.23217773 C88.44984278 152.57396237 88.40847639 148.91594104 88.3617382 145.25788498 C88.34587292 143.87146945 88.33348139 142.48500913 88.32483101 141.09852982 C88.23800675 127.36091823 87.61572706 115.69066514 78.13842773 105.07446289 C71.59851635 98.85228 63.59256891 95.58474305 54.59545898 95.01977539 C43.86481909 95.40130925 34.97773623 99.61151965 27.64624023 107.36352539 C20.6346431 116.55356061 20.38060794 126.19356416 20.41967773 137.33227539 C20.4097554 138.88262306 20.39780835 140.43295896 20.38394165 141.98327637 C20.35179296 146.03321421 20.34120432 150.08288169 20.33709717 154.13293457 C20.32828827 160.64222899 20.2929332 167.15130439 20.24492264 173.66041565 C20.23232555 175.93063589 20.23309498 178.20057706 20.23519897 180.4708252 C20.22862302 181.85368062 20.22161763 183.23653408 20.21411133 184.61938477 C20.21285248 185.82832397 20.21159363 187.03726318 20.21029663 188.28283691 C19.95874023 191.11352539 19.95874023 191.11352539 17.95874023 193.11352539 C16.01928711 193.37231445 16.01928711 193.37231445 13.67749023 193.37915039 C12.83573242 193.38172852 11.99397461 193.38430664 11.12670898 193.38696289 C10.2462793 193.37922852 9.36584961 193.37149414 8.45874023 193.36352539 C7.57831055 193.37125977 6.69788086 193.37899414 5.79077148 193.38696289 C4.94901367 193.38438477 4.10725586 193.38180664 3.23999023 193.37915039 C2.46719727 193.37689453 1.6944043 193.37463867 0.89819336 193.37231445 C-1.04125977 193.11352539 -1.04125977 193.11352539 -3.04125977 191.11352539 C-3.2365117 188.59482636 -3.3061843 186.18628162 -3.28849792 183.66661072 C-3.29091234 182.88973249 -3.29332676 182.11285425 -3.29581434 181.31243426 C-3.30147441 178.69518455 -3.29277094 176.07817644 -3.28417969 173.4609375 C-3.28525199 171.59036696 -3.2871899 169.71979674 -3.28993225 167.84922791 C-3.2947917 162.75849984 -3.28711148 157.66785904 -3.27697921 152.57714152 C-3.26821779 147.26045879 -3.26995577 141.94377894 -3.27033997 136.62709045 C-3.26940253 127.69831882 -3.26070746 118.76958111 -3.24707031 109.84082031 C-3.23133915 99.50251217 -3.22607233 89.1642412 -3.22680587 78.82592195 C-3.22741521 68.89897833 -3.22231865 58.97204687 -3.21401405 49.04510689 C-3.21047405 44.81185372 -3.20864978 40.57860485 -3.20812035 36.34535027 C-3.20711928 31.36565975 -3.20104214 26.38600071 -3.19095421 21.40632057 C-3.18802171 19.57326322 -3.18680534 17.74020225 -3.18738174 15.90714264 C-3.18786886 13.41587992 -3.18225221 10.92470673 -3.17497253 8.43345642 C-3.17652114 7.69845333 -3.17806974 6.96345023 -3.17966527 6.20617431 C-3.15031656 0.17520598 -3.15031656 0.17520598 0 0 Z " fill="#EE4C2C" transform="translate(537.041259765625,129.886474609375)"/>
<path d="M0 0 C15.37456079 11.81190395 22.82266617 27.13368775 25.421875 46.07421875 C25.65196772 50.35010844 25.69924118 52.09169583 23.00105286 55.59660339 C19.13406648 58.69348385 16.0975111 58.67356297 11.35424805 58.56762695 C10.4952037 58.56835709 9.63615936 58.56908722 8.75108337 58.56983948 C5.92064571 58.56636484 3.09186776 58.52751033 0.26171875 58.48828125 C-1.70410768 58.47895267 -3.66994575 58.47183677 -5.63578796 58.46684265 C-10.80311325 58.44777648 -15.96973282 58.39867863 -21.13677979 58.34332275 C-26.41205296 58.29212226 -31.68744046 58.26932688 -36.96289062 58.24414062 C-47.30890336 58.19055979 -57.65439293 58.10525131 -68 58 C-67.24615149 59.90287634 -66.48249565 61.80186889 -65.71484375 63.69921875 C-65.29066162 64.75713623 -64.86647949 65.81505371 -64.42944336 66.9050293 C-59.62225658 77.31334813 -51.16138676 81.79528824 -41 86 C-29.72912782 89.34127566 -14.38697923 88.26986446 -4 83 C2.92404254 79.0768659 2.92404254 79.0768659 9 74 C11.3515625 73.984375 11.3515625 73.984375 14 75 C15.72233012 77.09520571 17.02534457 78.93991562 18.375 81.25 C18.74238281 81.82363281 19.10976562 82.39726562 19.48828125 82.98828125 C21.1193394 85.69029834 22.01588613 87.55455305 21.90234375 90.73828125 C19.23960477 97.41241922 11.43786528 100.6906974 5.32421875 103.61328125 C-2.66571711 106.94633323 -11.29998976 109.62173869 -20 110 C-21.50046875 110.07734375 -21.50046875 110.07734375 -23.03125 110.15625 C-41.06617113 110.6436803 -57.69775536 106.53945793 -71.5625 94.5625 C-84.08812379 82.26805383 -90.9189497 67.93256524 -91.4375 50.25 C-91.30895049 33.76797562 -85.73533357 19.29712874 -74.3515625 7.28515625 C-53.49575964 -12.98169537 -24.42305195 -15.84280785 0 0 Z M-60.7578125 23.953125 C-64.0013878 28.05851983 -65.26669099 30.80007298 -67 36 C-44.56 36 -22.12 36 1 36 C-2.59639038 25.21082885 -8.93879687 19.16656377 -19 14 C-33.61084471 8.02374478 -50.32915512 12.36572791 -60.7578125 23.953125 Z " fill="#EE4D2C" transform="translate(1039,211)"/>
<path d="M0 0 C11.04537467 9.10185055 19.3033129 23.03279011 21.4296875 37.22265625 C21.59683748 39.94637882 21.70497187 42.62347211 21.7421875 45.34765625 C21.78569336 46.42080078 21.78569336 46.42080078 21.83007812 47.515625 C21.89301132 52.69551107 21.89301132 52.69551107 19.93634033 54.92170715 C16.33140991 56.79266069 12.86636635 56.66207425 8.89746094 56.6550293 C7.60911346 56.67031677 7.60911346 56.67031677 6.29473877 56.68591309 C3.45944728 56.7160761 0.62449345 56.72531407 -2.2109375 56.734375 C-4.17821376 56.75121923 -6.14547925 56.76936913 -8.11273193 56.78877258 C-13.2879296 56.83630643 -18.46308357 56.86609395 -23.63842773 56.89221191 C-28.92049796 56.92200031 -34.20241756 56.96853656 -39.484375 57.01367188 C-49.84627543 57.09974353 -60.20820683 57.1670717 -70.5703125 57.22265625 C-69.95174439 58.82892543 -69.32722013 60.43290175 -68.70019531 62.03588867 C-68.35305481 62.92934494 -68.00591431 63.82280121 -67.64825439 64.74333191 C-64.30998358 72.42153435 -57.07315504 78.7070386 -49.5703125 82.22265625 C-48.90386719 82.53976562 -48.23742188 82.856875 -47.55078125 83.18359375 C-36.2587541 87.49473546 -20.83839417 86.68997457 -9.609375 82.71484375 C-5.37540047 80.63595137 -1.58868785 78.0438136 2.11889648 75.13305664 C5.88316028 72.23659319 5.88316028 72.23659319 8.57421875 72.16796875 C13.59927014 75.02431375 16.57228277 81.53960252 19.1171875 86.53515625 C19.4296875 89.22265625 19.4296875 89.22265625 17.85546875 91.63671875 C6.90399884 103.31123257 -11.48912544 107.52650141 -26.82421875 108.41015625 C-45.34020146 108.76666133 -62.28272028 104.17072263 -76.13183594 91.62304688 C-86.31790557 81.70666951 -93.30479235 67.81527225 -93.87109375 53.48828125 C-93.89058667 51.81651533 -93.89403937 50.14449812 -93.8828125 48.47265625 C-93.87717285 47.59158203 -93.8715332 46.71050781 -93.86572266 45.80273438 C-93.56023675 29.3367414 -87.26803736 14.92038111 -75.5703125 3.22265625 C-52.96043358 -15.63357221 -24.10860522 -16.67084404 0 0 Z M-61.9453125 20.03515625 C-65.50249192 23.82996101 -69.5703125 28.77927641 -69.5703125 34.22265625 C-47.1303125 34.22265625 -24.6903125 34.22265625 -1.5703125 34.22265625 C-7.76551218 21.83225689 -13.17264811 16.05843763 -25.6328125 10.97265625 C-39.00480574 7.55853032 -51.77472129 10.46615269 -61.9453125 20.03515625 Z " fill="#EE4D2C" transform="translate(1178.5703125,212.77734375)"/>
<path d="M0 0 C0.84949219 0.26683594 1.69898438 0.53367188 2.57421875 0.80859375 C15.5943034 5.40752475 26.99146468 15.71003776 33.875 27.63671875 C41.19557509 43.01501017 43.469367 59.70951393 37.9609375 76.08984375 C35.40218835 82.63528914 32.20950213 88.38369534 28 94 C27.58492187 94.59167969 27.16984375 95.18335938 26.7421875 95.79296875 C16.73677724 108.88387978 0.68337229 114.71456666 -15 117 C-32.07960404 118.69195542 -47.95140134 112.63509846 -61 102 C-70.36065552 94.29122487 -77.160838 82.80246681 -80 71 C-80.18175781 70.27039063 -80.36351562 69.54078125 -80.55078125 68.7890625 C-83.30090782 51.71436361 -79.72118556 35.76314847 -70.25390625 21.33984375 C-60.71634638 8.51073515 -47.01814093 0.72430186 -31.5234375 -2.49609375 C-20.69060344 -4.04535716 -10.42722347 -3.44590647 0 0 Z M-51 33 C-58.172299 42.74658889 -60.03859949 51.9969451 -59 64 C-56.69262491 74.73551163 -50.29740362 83.09421141 -41.50390625 89.4921875 C-32.12173139 95.14198391 -21.97373211 96.38226588 -11.2734375 94.52734375 C-1.32810982 91.95633799 7.99800399 85.39045517 13.47265625 76.6484375 C19.0019705 66.23462698 20.42556322 56.34310109 17.09375 44.8828125 C13.24832876 34.67166016 6.86182875 26.8360891 -3 22 C-3.6290625 21.68160156 -4.258125 21.36320312 -4.90625 21.03515625 C-21.55096665 14.08918796 -39.46280047 20.04631156 -51 33 Z " fill="#EE4C2C" transform="translate(746,204)"/>
</svg>
