<svg width="322" height="364" viewBox="0 0 322 364" fill="none" xmlns="http://www.w3.org/2000/svg">
<path d="M203.125 13.548C221.377 27.7104 235.194 48.7683 238.732 71.9414C239.02 74.3278 239.273 76.7145 239.508 79.1066C239.593 79.9284 239.679 80.7503 239.768 81.597C239.976 83.597 240.176 85.5978 240.375 87.5987C241.331 87.5899 242.286 87.581 243.271 87.5718C252.276 87.4908 261.281 87.4308 270.286 87.3915C274.916 87.3706 279.545 87.3423 284.175 87.297C288.642 87.2535 293.11 87.2296 297.577 87.2192C299.282 87.2118 300.987 87.1974 302.692 87.1758C305.079 87.1468 307.465 87.1428 309.852 87.1446C310.558 87.1303 311.264 87.1159 311.991 87.1011C315.163 87.1278 317.009 87.3214 319.568 89.2611C321.88 92.252 321.819 93.7308 321.686 97.4819C321.649 98.7348 321.613 99.9878 321.575 101.279C321.509 102.719 321.443 104.159 321.375 105.599C321.312 107.2 321.25 108.801 321.189 110.403C320.96 116.093 320.678 121.781 320.397 127.468C320.291 129.648 320.186 131.828 320.081 134.007C319.797 139.889 319.509 145.771 319.219 151.653C319.038 155.334 318.858 159.015 318.679 162.696C318.051 175.555 317.42 188.413 316.785 201.272C316.195 213.233 315.612 225.195 315.033 237.157C314.535 247.453 314.031 257.749 313.522 268.045C313.219 274.183 312.919 280.321 312.623 286.459C312.346 292.23 312.061 298 311.771 303.77C311.667 305.881 311.564 307.991 311.464 310.102C309.819 344.793 309.819 344.793 299.187 354.974C291.916 361.508 283.234 363.197 273.762 363.12C272.741 363.128 271.72 363.135 270.668 363.143C267.272 363.164 263.877 363.156 260.481 363.148C258.036 363.157 255.591 363.167 253.146 363.179C247.209 363.203 241.272 363.208 235.335 363.203C230.506 363.2 225.677 363.203 220.848 363.212C220.159 363.213 219.47 363.214 218.76 363.216C217.36 363.218 215.96 363.22 214.56 363.223C201.449 363.244 188.339 363.24 175.229 363.228C163.255 363.218 151.282 363.24 139.308 363.278C126.99 363.317 114.673 363.333 102.355 363.326C95.449 363.322 88.543 363.327 81.6368 363.355C75.1409 363.382 68.6454 363.377 62.1494 363.351C59.7711 363.346 57.3927 363.351 55.0145 363.368C30.068 363.529 30.068 363.529 20.1785 354.62C12.2186 346.526 10.3606 336.89 9.87483 325.941C9.83314 325.07 9.79146 324.198 9.7485 323.301C9.60976 320.38 9.47649 317.46 9.34323 314.54C9.24487 312.445 9.1462 310.35 9.04723 308.255C8.77913 302.558 8.51598 296.86 8.25404 291.162C8.03428 286.39 7.81226 281.618 7.5903 276.846C7.06554 265.562 6.54495 254.277 6.02682 242.992C5.49499 231.411 4.95581 219.83 4.41296 208.248C3.94558 198.271 3.48312 188.294 3.02438 178.316C2.7511 172.373 2.47603 166.431 2.19612 160.488C0.196302 117.948 0.1963 117.948 0.0527039 101.166C0.0356663 100.093 0.018622 99.0212 0.00106812 97.9165C0.00272256 96.9682 0.00438368 96.0198 0.00608826 95.0426C0.00407693 94.245 0.00207228 93.4473 0 92.6255C0.478644 90.0367 1.27382 89.1512 3.37473 87.5987C5.9569 87.3183 8.29491 87.2194 10.8755 87.2582C12.0173 87.2575 12.0173 87.2575 13.1822 87.2568C15.6984 87.2589 18.214 87.2823 20.7302 87.3058C22.4747 87.3114 24.2192 87.3156 25.9637 87.3186C30.5554 87.3301 35.1469 87.3596 39.7386 87.3928C44.4239 87.4234 49.1093 87.4371 53.7946 87.4523C62.9881 87.4844 72.1814 87.5356 81.3747 87.5987C81.3626 86.7001 81.3626 86.7001 81.3501 85.7833C81.3438 84.9873 81.3375 84.1913 81.331 83.3712C81.3189 82.1941 81.3189 82.1941 81.3064 80.9932C81.4155 77.1699 82.192 73.5621 83.0622 69.8487C83.2416 69.0694 83.4209 68.2901 83.6057 67.4872C87.1882 52.5448 93.5242 39.3888 103.375 27.5987C104.156 26.5991 104.156 26.5991 104.953 25.5792C128.896 -3.88506 172.874 -7.89381 203.125 13.548ZM122.09 39.4425C110.505 54.0084 105.223 69.1127 103.375 87.5987C140.995 87.5987 178.615 87.5987 217.375 87.5987C215.616 64.738 208.792 49.0561 192.086 33.462C170.954 15.7495 140.42 19.7231 122.09 39.4425ZM116.054 150.567C108.494 159.711 104.649 170.392 105.59 182.325C107.454 194.93 113.946 204.856 123.999 212.627C131.378 217.655 138.768 221.128 147.125 224.224C148.967 224.929 148.967 224.929 150.847 225.649C155.99 227.61 161.148 229.527 166.328 231.388C179.414 236.094 192.589 241.815 199.812 254.411C203.076 261.857 203.138 269.644 200.437 277.251C196.398 286.176 189.877 290.965 180.906 294.599C163.75 300.546 145.305 298.45 129.071 290.809C122.714 287.67 116.882 284.147 111.293 279.751C110.66 279.371 110.027 278.991 109.375 278.599C105.796 279.792 105.193 280.843 103.125 283.911C102.583 284.691 102.042 285.471 101.484 286.275C100.207 288.483 100.207 288.483 100.461 290.681C105.11 300.437 121.701 306.029 131.101 309.501C151.755 316.427 173.398 317.131 193.562 308.095C205.397 301.8 213.621 291.753 217.699 279.017C220.82 267.848 219.947 257.262 215.375 246.599C213.385 243.211 211.087 240.432 208.375 237.599C207.329 236.493 207.329 236.493 206.261 235.364C194.404 223.806 179.363 218.144 164.077 212.583C132.39 201.045 132.39 201.045 125.375 188.599C122.532 181.154 122.513 174.227 125.289 166.829C129.496 158.187 136.648 154.035 145.375 150.599C163.468 145.595 182.268 151.373 198.144 159.892C201.263 161.652 201.263 161.652 204.375 162.599C205.575 160.836 206.759 159.063 207.937 157.286C208.929 155.807 208.929 155.807 209.941 154.298C210.414 153.407 210.887 152.516 211.375 151.599C209.932 147.271 206.715 146.228 202.875 144.224C202.12 143.827 201.366 143.43 200.588 143.021C174.178 129.634 137.694 127.222 116.054 150.567Z" fill="#EE4C2C"/>
</svg>
